<svg xmlns="http://www.w3.org/2000/svg" viewBox="0 0 574.46 441.12"><defs><style>.cls-1{isolation:isolate;}.cls-2{fill:#b78f70;stroke:#b78f70;mix-blend-mode:multiply;}.cls-2,.cls-3{stroke-miterlimit:10;stroke-width:8px;}.cls-3{fill:#fff;stroke:#452b42;}.cls-4{fill:#452b42;}</style></defs><title>云星星闪电</title><g class="cls-1"><g id="图层_1" data-name="图层 1"><path class="cls-2" d="M794.54,502.13a61.52,61.52,0,0,0-19.45-42.67L761.68,450a61.28,61.28,0,0,0-19.36-6.28c6.22-13,7.83-28.8,3.35-42.54a5.34,5.34,0,0,1-.16-.53s0,.07,0,.1c-.88-3.47-2.35-6.71-5.93-13.32a50.05,50.05,0,0,0-10.23-12.48A59.32,59.32,0,0,0,687,359.07c-14.32.5-29.28,6.46-39.4,16.88-2.17-21.64-20.9-37.08-42.47-37.08A37.47,37.47,0,0,0,584.74,345c-1-9.07-3.16-14.75-8.14-23.79a57.72,57.72,0,0,0-51.2-27.45,128.82,128.82,0,0,0-19.52,3.57,58.15,58.15,0,0,0-39.4,40.47,44.76,44.76,0,0,0-32.37-13.61c-23.11,0-41.67,21.36-40.89,43.85,0,1.17.15,2.33.29,3.47a66.18,66.18,0,0,0-9.81-3.06L367.36,367a66.52,66.52,0,0,0-10.65,1.27A64,64,0,0,0,309,388.68l-10,14.09a46.66,46.66,0,0,0-2,4.23,64.83,64.83,0,0,0-3.32,9.69l-.76,2.59c-3.36,11.54-1,22.46,1.26,33.8,1.37,6.88,5.19,13.13,8.37,19.35l4.8,5.85a60.28,60.28,0,0,0-12.93-1l-15,2.46A59.39,59.39,0,0,0,256,580.11l13,9.22a59.28,59.28,0,0,0,29.58,6.7l13.61-2.23a32.94,32.94,0,0,0-2,12.47c.66,19,16.63,32.76,35.12,32.76a30.16,30.16,0,0,0,9.38-1.51,50.77,50.77,0,0,0-.42,8.46c1.06,30.39,26.63,52.46,56.25,52.46,19.5,0,36.46-11.86,45.51-28.17a57.93,57.93,0,0,0,30.38,42l14.14,5.18a58.34,58.34,0,0,0,29.45-1c5-1.13,9.67-3.77,14.13-6.29,10.24-5.78,14.78-12.94,21-22.46,4.81-7.37,5.79-15.93,6.38-24.38q1.44,1.63,3,3.14l10.28,7.29a47,47,0,0,0,23.42,5.31l11.86-1.95a46.87,46.87,0,0,0,30.08-27.5c.61.62,1.24,1.24,1.88,1.84l13,9.22a59.34,59.34,0,0,0,29.62,6.71l15-2.46a59.49,59.49,0,0,0,42.34-59,59.72,59.72,0,0,0-17.8-40.37c.4,0,.8,0,1.21,0L750.91,563a61.32,61.32,0,0,0,43.63-60.84Z" transform="translate(-224.12 -281.77)"/><path class="cls-3" d="M785.54,494.13a61.52,61.52,0,0,0-19.45-42.67L752.68,442a61.28,61.28,0,0,0-19.36-6.28c6.22-13,7.83-28.8,3.35-42.54a5.34,5.34,0,0,1-.16-.53s0,.07,0,.1c-.88-3.47-2.35-6.71-5.93-13.32a50.05,50.05,0,0,0-10.23-12.48A59.32,59.32,0,0,0,678,351.07c-14.32.5-29.28,6.46-39.4,16.88-2.17-21.64-20.9-37.08-42.47-37.08A37.47,37.47,0,0,0,575.74,337c-1-9.07-3.16-14.75-8.14-23.79a57.72,57.72,0,0,0-51.2-27.45,128.82,128.82,0,0,0-19.52,3.57,58.15,58.15,0,0,0-39.4,40.47,44.76,44.76,0,0,0-32.37-13.61c-23.11,0-41.67,21.36-40.89,43.85,0,1.17.15,2.33.29,3.47a66.18,66.18,0,0,0-9.81-3.06L358.36,359a66.52,66.52,0,0,0-10.65,1.27A64,64,0,0,0,300,380.68l-10,14.09a46.66,46.66,0,0,0-2,4.23,64.83,64.83,0,0,0-3.32,9.69l-.76,2.59c-3.36,11.54-1,22.46,1.26,33.8,1.37,6.88,5.19,13.13,8.37,19.35l4.8,5.85a60.28,60.28,0,0,0-12.93-1l-15,2.46A59.39,59.39,0,0,0,247,572.11l13,9.22a59.28,59.28,0,0,0,29.58,6.7l13.61-2.23a32.94,32.94,0,0,0-2,12.47c.66,19,16.63,32.76,35.12,32.76a30.16,30.16,0,0,0,9.38-1.51,50.77,50.77,0,0,0-.42,8.46c1.06,30.39,26.63,52.46,56.25,52.46,19.5,0,36.46-11.86,45.51-28.17a57.93,57.93,0,0,0,30.38,42l14.14,5.18a58.34,58.34,0,0,0,29.45-1c5-1.13,9.67-3.77,14.13-6.29,10.24-5.78,14.78-12.94,21-22.46,4.81-7.37,5.79-15.93,6.38-24.38q1.44,1.63,3,3.14l10.28,7.29a47,47,0,0,0,23.42,5.31l11.86-1.95a46.87,46.87,0,0,0,30.08-27.5c.61.62,1.24,1.24,1.88,1.84l13,9.22a59.34,59.34,0,0,0,29.62,6.71l15-2.46a59.49,59.49,0,0,0,42.34-59,59.72,59.72,0,0,0-17.8-40.37c.4,0,.8,0,1.21,0L741.91,555a61.32,61.32,0,0,0,43.63-60.84Z" transform="translate(-224.12 -281.77)"/><path class="cls-4" d="M425.49,637.08s.72.74,2,1.89a59.08,59.08,0,0,0,5.43,4.29c1.13.81,2.41,1.59,3.75,2.37s2.8,1.49,4.29,2.18a47.81,47.81,0,0,0,4.75,1.75c.81.3,1.68.43,2.5.7s1.7.4,2.56.53,1.73.34,2.61.41,1.74.24,2.62.28,1.74.14,2.61.16,1.73.06,2.59.05c1.71,0,3.38-.06,5-.1s3.14-.17,4.57-.32l2.07-.16,1.88-.19c.6,0,1.15-.1,1.68-.13l1.43-.15c1.74-.16,2.79-.19,2.79-.19s-.79.65-2.25,1.69c-.36.26-.77.53-1.22.83s-1,.56-1.5.87-1.12.62-1.74,1-1.29.59-2,.92a45.23,45.23,0,0,1-4.66,1.74,41,41,0,0,1-5.49,1.24c-.48.07-1,.18-1.47.22l-1.51.13-1.53.12h-1.57a35.21,35.21,0,0,1-6.35-.58c-1.06-.19-2.11-.48-3.15-.73s-2.06-.64-3-1.05l-1.47-.61-1.41-.7A29,29,0,0,1,437.6,654a31.55,31.55,0,0,1-4.54-3.6,28.34,28.34,0,0,1-3.36-3.86,25.43,25.43,0,0,1-3.52-6.66,18,18,0,0,1-.57-2A6.21,6.21,0,0,1,425.49,637.08Z" transform="translate(-224.12 -281.77)"/><path class="cls-4" d="M421.3,366l-.72,0-2-.07c-.86,0-1.89,0-3.05,0s-2.47,0-3.88.13-2.9.2-4.46.4-3.17.48-4.81.8a50.38,50.38,0,0,0-4.94,1.35,37.74,37.74,0,0,0-4.82,2l-1.17.56-1.14.64c-.76.4-1.49.88-2.22,1.33a11.21,11.21,0,0,0-1.07.73l-1,.73c-.7.49-1.32,1.06-2,1.55-1.28,1.08-2.51,2.16-3.62,3.27-.59.53-1.09,1.11-1.61,1.65s-1,1.05-1.49,1.6c-.93,1.06-1.82,2-2.54,2.94s-1.45,1.68-2,2.36-1,1.2-1.27,1.56L371,390l.11-.71c.09-.46.19-1.15.39-2a26.55,26.55,0,0,1,.84-3.06,32.67,32.67,0,0,1,1.51-3.86c.29-.71.7-1.39,1.09-2.13a22.43,22.43,0,0,1,1.31-2.21c.5-.73,1-1.5,1.57-2.24s1.2-1.48,1.85-2.2a33,33,0,0,1,4.52-4.09,27.7,27.7,0,0,1,2.61-1.76l1.38-.81,1.42-.71c.95-.49,2-.84,2.94-1.24s2-.67,3-.92a27.5,27.5,0,0,1,3-.63c1-.18,2-.26,3-.34a34.38,34.38,0,0,1,10.5.91,30.75,30.75,0,0,1,6.88,2.56,18.2,18.2,0,0,1,1.77,1A7,7,0,0,1,421.3,366Z" transform="translate(-224.12 -281.77)"/><path class="cls-4" d="M651.18,417.05l-.46-.55c-.3-.35-.74-.87-1.31-1.52s-1.27-1.4-2-2.26-1.7-1.79-2.72-2.76-2.1-2-3.31-3-2.5-2-3.84-3a51.07,51.07,0,0,0-4.33-2.72,39.77,39.77,0,0,0-4.71-2.23l-1.21-.49-1.23-.4c-.82-.29-1.66-.51-2.49-.74a12.83,12.83,0,0,0-1.26-.29l-1.25-.28c-.83-.18-1.67-.26-2.49-.43-1.66-.21-3.29-.38-4.86-.45-.79-.08-1.55-.05-2.3-.07s-1.48-.06-2.19,0c-1.4,0-2.72,0-3.88.12s-2.22.06-3.07.16-1.54.08-2,.11l-.72,0,.6-.4c.39-.24,1-.64,1.73-1.07a28,28,0,0,1,2.83-1.45,33,33,0,0,1,3.86-1.49c.72-.27,1.5-.43,2.3-.64a23.34,23.34,0,0,1,2.52-.53c.87-.12,1.77-.28,2.71-.35s1.9-.13,2.88-.13a33.42,33.42,0,0,1,6.06.56,25.23,25.23,0,0,1,3.06.74l1.53.46,1.49.57c1,.37,1.94.88,2.9,1.32s1.84,1,2.71,1.6a27.18,27.18,0,0,1,2.51,1.81c.81.61,1.54,1.29,2.26,1.95a34,34,0,0,1,3.73,4.19,32.17,32.17,0,0,1,2.7,4.17,30.11,30.11,0,0,1,2.77,6.79c.24.85.35,1.54.44,2S651.18,417.05,651.18,417.05Z" transform="translate(-224.12 -281.77)"/><path class="cls-4" d="M652.5,362.28l-1.64,1c-.53.34-1,.7-1.69,1.15s-1.37,1-2.17,1.61-1.64,1.3-2.49,2.08l-1.32,1.19-1.34,1.3c-.9.9-1.81,1.85-2.7,2.85-.44.51-.89,1-1.33,1.54l-1.28,1.6c-.85,1.08-1.66,2.19-2.44,3.31s-1.51,2.24-2.17,3.36-1.28,2.21-1.87,3.26-1,2.08-1.53,3-.83,1.84-1.19,2.62-.61,1.48-.84,2.05l-.71,1.81s.13-.69.38-1.91c.12-.6.25-1.35.47-2.18s.42-1.8.72-2.83.6-2.15,1-3.31.79-2.4,1.3-3.65,1-2.54,1.61-3.84,1.22-2.6,1.91-3.88l1-1.92,1.11-1.86c.75-1.23,1.53-2.42,2.32-3.55l1.19-1.65,1.2-1.55c.78-1,1.59-1.9,2.31-2.76s1.43-1.58,2.11-2.24,1.29-1.28,1.73-1.68l1.43-1.32Z" transform="translate(-224.12 -281.77)"/><path class="cls-4" d="M558.34,660.65l.13-1.31c0-.41.09-.91.15-1.48s.1-1.17.16-1.85c.09-1.39.18-3,.22-4.75s0-3.61-.06-5.48a60.44,60.44,0,0,0-1.27-10.23c-.3-1.38-.65-2.52-.9-3.31l-.44-1.24.75,1.09c.46.71,1.09,1.74,1.76,3a63.53,63.53,0,0,1,4,10c.58,1.87,1.11,3.77,1.55,5.57s.8,3.48,1.08,4.94l.37,2c.09.58.18,1.09.25,1.52l.21,1.3Z" transform="translate(-224.12 -281.77)"/><path class="cls-4" d="M642.29,647.91l-.71-1.1-.83-1.3-1.08-1.75c-.76-1.28-1.63-2.77-2.5-4.4s-1.75-3.4-2.56-5.18a61.84,61.84,0,0,1-3.65-10.1,34.79,34.79,0,0,1-.72-3.43l-.17-1.31.5,1.21c.34.76.85,1.84,1.55,3.07a60.25,60.25,0,0,0,5.89,8.46c1.19,1.44,2.42,2.84,3.62,4.11s2.34,2.42,3.33,3.39l1.36,1.27,1.1,1,1,.89Z" transform="translate(-224.12 -281.77)"/><path class="cls-4" d="M737.8,440.6l-1.36-.39c-.47-.14-.83-.2-1.37-.34s-1.17-.25-1.87-.38-1.49-.23-2.32-.36-1.73-.2-2.65-.28c-1.86-.16-3.85-.27-5.86-.3s-4,0-5.92.13c-1,.05-1.86.13-2.73.21s-1.67.21-2.43.3-1.44.24-2,.36l-1.56.37-1.35.41,1.22-.73,1.46-.75c.57-.27,1.22-.55,1.94-.86s1.51-.62,2.36-.9,1.74-.62,2.68-.9c1.87-.59,3.89-1.13,5.94-1.61s4.12-.88,6.09-1.2c1-.15,2-.28,2.86-.39s1.79-.21,2.62-.24,1.55-.12,2.3-.11,1.41,0,1.82,0l1.41,0Z" transform="translate(-224.12 -281.77)"/><path class="cls-4" d="M295.2,459l.69,1.32c.23.43.45.78.74,1.29s.69,1.08,1.09,1.71c.85,1.27,1.93,2.74,3.17,4.29s2.61,3.16,4.05,4.73a81,81,0,0,0,8.5,8.13c.62.5,1.22.94,1.74,1.34l1.41,1,1.29.74-1.44-.43-1.62-.61c-.61-.27-1.3-.57-2.05-.93a83.72,83.72,0,0,1-10.45-6.17c-1.83-1.24-3.62-2.56-5.27-3.86s-3.16-2.58-4.43-3.76c-.63-.61-1.2-1.1-1.73-1.69s-1-1.07-1.32-1.42l-1-1.13Z" transform="translate(-224.12 -281.77)"/><path class="cls-4" d="M296.37,582.42l1.5-.08c.49,0,.9-.08,1.48-.12s1.27-.17,2-.27c1.51-.24,3.3-.6,5.22-1.07s4-1,6-1.68a82.81,82.81,0,0,0,11-4.27c.72-.36,1.37-.71,1.95-1l1.45-.88,1.22-.86-1,1.13-1.24,1.2c-.5.44-1.07,1-1.7,1.47a84,84,0,0,1-10,6.88c-1.9,1.13-3.85,2.2-5.72,3.16s-3.68,1.77-5.28,2.43c-.82.31-1.5.62-2.26.86s-1.41.47-1.85.6l-1.44.41Z" transform="translate(-224.12 -281.77)"/><path class="cls-4" d="M463.05,323.57l-.57,1.38c-.19.45-.31.85-.52,1.39s-.39,1.22-.62,1.93c-.43,1.47-.87,3.25-1.27,5.18s-.76,4-1.05,6.14a82.36,82.36,0,0,0-.82,11.74c0,.8.06,1.54.09,2.19l.16,1.69c.17.94.26,1.47.26,1.47l-.59-1.38c-.16-.46-.34-1-.56-1.64s-.4-1.37-.6-2.17a83,83,0,0,1-1.94-12c-.21-2.21-.34-4.43-.4-6.53s0-4.08.06-5.81c.07-.88.08-1.62.19-2.41s.17-1.48.25-1.93l.24-1.47Z" transform="translate(-224.12 -281.77)"/><path class="cls-4" d="M339.52,627.41l1.23-.08.61-.05.51-.07.6-.07c.23,0,.5-.12.77-.19s.56-.12.85-.22l.91-.32a21.07,21.07,0,0,0,2-.83c.66-.37,1.38-.71,2.06-1.16l1-.67,1-.74c.69-.49,1.32-1,2-1.6s1.23-1.13,1.78-1.73,1.06-1.18,1.55-1.76.88-1.15,1.26-1.69.71-1.05,1-1.53.5-.88.65-1.24l.49-1.13-.17,1.23a14.25,14.25,0,0,1-.29,1.41c-.11.55-.32,1.14-.51,1.81s-.49,1.36-.8,2.09-.66,1.51-1.08,2.27-.87,1.56-1.34,2.35-1,1.58-1.62,2.33l-.88,1.13-.95,1.08c-.62.73-1.33,1.36-2,2s-1.37,1.22-2.1,1.71l-1,.75c-.35.23-.71.43-1.05.63s-.66.4-1,.57l-1.05.47-.93.4c-.29.12-.45.17-.65.24l-1.16.42Z" transform="translate(-224.12 -281.77)"/><path class="cls-4" d="M577.48,325.55l.12,1.44c0,.45.08,1.15.12,1.86s0,1.48,0,2.34,0,1.75-.12,2.71-.15,2-.29,3-.29,2.08-.46,3.14-.4,2.12-.66,3.18-.53,2.1-.79,3.12-.59,2-.93,3c-.63,1.9-1.34,3.63-2,5.09-.3.73-.64,1.38-.9,2s-.53,1.08-.75,1.49c-.43.81-.67,1.28-.67,1.28l.35-1.4c.11-.45.25-1,.37-1.61s.29-1.32.41-2.09c.26-1.54.54-3.33.69-5.26.1-1,.13-2,.2-3s.06-2,0-3.05-.06-2-.11-3-.14-2-.26-2.89-.24-1.82-.39-2.66-.31-1.62-.46-2.33-.32-1.38-.49-1.9-.28-.94-.43-1.39l-.46-1.37Z" transform="translate(-224.12 -281.77)"/><path class="cls-4" d="M696.48,575.69l.57-.45,1.54-1.27c.66-.54,1.43-1.24,2.3-2s1.83-1.66,2.81-2.66,2-2.07,3.09-3.25,2.06-2.46,3.08-3.78,1.94-2.78,2.81-4.27a39.65,39.65,0,0,0,2.32-4.66l.51-1.2.43-1.23c.31-.81.54-1.65.79-2.47.13-.41.23-.83.32-1.25l.3-1.25c.2-.83.3-1.67.48-2.48.24-1.66.45-3.28.55-4.85.1-.79.08-1.55.12-2.3s.08-1.48.06-2.18c0-1.41,0-2.73,0-3.89s0-2.22-.09-3.07-.06-1.54-.08-2v-.73l.39.61c.23.4.62,1,1,1.76a26.39,26.39,0,0,1,1.39,2.85,33,33,0,0,1,1.42,3.89c.25.73.39,1.51.59,2.31a24.15,24.15,0,0,1,.47,2.53c.11.88.26,1.79.3,2.72S724,543,724,544a31.86,31.86,0,0,1-.68,6,25.86,25.86,0,0,1-.8,3.05l-.49,1.51-.6,1.48c-.39,1-.92,1.92-1.38,2.87s-1.07,1.83-1.65,2.69a27.32,27.32,0,0,1-1.86,2.46c-.63.8-1.32,1.52-2,2.23a35.27,35.27,0,0,1-4.27,3.65,33.66,33.66,0,0,1-4.22,2.61,30.59,30.59,0,0,1-6.85,2.63,18.71,18.71,0,0,1-2,.4C696.74,575.68,696.48,575.69,696.48,575.69Z" transform="translate(-224.12 -281.77)"/></g></g></svg>