<svg id="图层_1" data-name="图层 1" xmlns="http://www.w3.org/2000/svg" viewBox="0 0 242.62 215.82"><defs><style>.cls-1{fill:#fff;}.cls-2{fill:#ffe500;}.cls-3{fill:#fb0;}</style></defs><title>sun</title><path class="cls-1" d="M196.57,86.13s35.27-20.77,42.23-6c5,10.71-32.93,24.11-32.93,24.11s4.41,10.4,3.78,18.59c0,0,47.65-2.13,42.86,20.48-2.21,10.4-40.81,1.11-43.65.16,0,0-3.62,10.09-7.72,14.18,0,0,39.71,21.59,26.63,34-12.4,11.8-38.61-17-39.55-19.07,0,0-8.83,8.83-13.4,11,0,0,26.48,27.1,13.87,36.09s-29.31-23.32-29.94-26c0,0-15.6,3.94-23.79,4.25,0,0,3.31,38.45-10.25,37.66s-6.93-38-6.93-38S98.87,194.39,93,191.08c0,0-20.48,38.29-32.46,25.52s16.55-36.87,16.55-36.87-13.24-5.83-18-18.59c0,0-42.23,23.16-48.37,7.09s40.34-26,40.34-26-.63-17.33,0-20.8c0,0-43.18-9.61-37.35-21.9s40,1.73,40,1.73,5.67-12.76,7.72-15.6c0,0-37-21.9-26.79-32.3S73.82,72.9,73.82,72.9,85.48,62.66,92.25,59c0,0-13.91-34.13-.47-38.61,17-5.67,21.59,33.41,21.59,33.41s16.7-2,23.32-1.73c0,0-1.42-32.94,10.4-32.15,18.45,1.23,9.61,36.56,9.61,36.56s9.77,2.68,13.87,5c0,0,19.22-30.57,32-22.37s-17.81,34.5-17.81,34.5,9.14,8.83,11.82,12.45" transform="translate(-10.23 -19.86)"/><path class="cls-2" d="M81.07,80.3C138.42,27.36,242.83,101.49,181.91,166,118.25,233.46,14.83,141.44,81.07,80.3" transform="translate(-10.23 -19.86)"/><path class="cls-3" d="M118.18,134.54c-4.11-.25-6.7,5.44-10.22,6.88-1.8.73-4.7,2.78-4.82,4.94a.94.94,0,0,0,1.8.48c.78-1.63,3.42-2.09,4.76-3s2.64-1.91,3.91-2.93c1.1-.89,3.1-3.2,4.58-3.29,1.75-.11,1.74-3,0-3.09" transform="translate(-10.23 -19.86)"/><path class="cls-3" d="M119.92,140.13c-2.24.37-3.23,2.49-5,3.6a9.94,9.94,0,0,0-2.37,2.16l-.48.65c.37,0,.38,0,.06.06s-.33.35-.56.37a.47.47,0,0,0,0,.92c.4,0,.6.53,1.13.45.73-.1,1.58-1,2.2-1.32a21.21,21.21,0,0,0,3-1.73c.67-.56,1.59-1.79,2.5-1.91,2.1-.27,1.64-3.6-.45-3.25" transform="translate(-10.23 -19.86)"/><path class="cls-3" d="M167.66,107c-2.53.86-4.7,2.71-6.73,4.41a38.23,38.23,0,0,1-3.4,2.69,25.33,25.33,0,0,1-2.8,2.11,1,1,0,0,0,.53,1.92c1.87-.16,4.07-1.54,5.57-2.59,2.64-1.85,5.26-4,8.23-5.28,2.12-.92.75-4-1.4-3.26" transform="translate(-10.23 -19.86)"/><path class="cls-3" d="M168.58,115.55a3,3,0,0,0-.44,0v0a7.42,7.42,0,0,0-4.24,1.75c-.5.39-1,.83-1.43,1.25-.21.18-.43.32-.63.51a1.51,1.51,0,0,0-.21.23l-.16.08c-.71.26-.44,1.19.18,1.34a4.46,4.46,0,0,0,2.93-.36c1.36-.57,2.48-1.48,4-1.55,1.84-.07,1.84-3.25,0-3.25" transform="translate(-10.23 -19.86)"/><path d="M156.48,106.13a52.87,52.87,0,0,1-5.48.66c-.3,0-.58.06-.87.09,2.34-2.14,4.61-4.37,6.77-6.7.58-.63-.85-2.69-1.51-2.08-3.51,3.24-6.76,6.65-10.45,9.69-.81.67.33,2.55,1.26,2.45,2-.22,3.89-.68,5.88-.89,1.84-.2,3.65-.4,5.48-.67,1.19-.18-.05-2.7-1.08-2.55" transform="translate(-10.23 -19.86)"/><path d="M116.47,124.67c-.89-2.6-1.61-6-4.07-7.7a2.68,2.68,0,0,0-2-.4c-2.18.49-1.45,4.34-1.16,5.8.5,2.55,1.13,5.61,3.69,6.82a7.18,7.18,0,0,0,2.2.55c2.14.16,1.82-3.63,1.33-5.07" transform="translate(-10.23 -19.86)"/><path class="cls-1" d="M131.55,127.16l12.23-3.48s-.06,5.43-2.72,6.61-9.45-1.18-9.51-3.13" transform="translate(-10.23 -19.86)"/><path d="M143.68,121.67a54.7,54.7,0,0,1-7.66,2.74c-1.38.4-2.74.86-4.12,1.23-.91.25-2.83.53-2.77,1.34.11,1.61,2.82,2.79,4.05,3.42a14.88,14.88,0,0,0,6.71,1.55c4.33,0,5-4.76,5.48-8.29.09-.67-.19-2.68-1.69-2m-9.09,7c-.53-.29-1.48-.58-2-.8,1.69-.4,3.89-1,5.33-1.36,1.6-.45,3.73-1.28,5.37-1.89a9.68,9.68,0,0,1-2.43,4.56c-1.3,1.16-5.13.14-6.29-.51" transform="translate(-10.23 -19.86)"/><path class="cls-3" d="M195.18,43.39c-8.85,3.71-15.32,13.81-19.58,22a2.76,2.76,0,0,0,2.91,3.77c4.88-1.15,6.74-5.13,9.52-8.9,3.24-4.4,7.48-7.88,10.88-12.1,2-2.49-.9-6-3.73-4.77" transform="translate(-10.23 -19.86)"/><path class="cls-3" d="M247.2,138c-1.4-3.31-3.09-3.4-6.2-4.29-3.27-.93-6.3-2.2-9.69-2.68-6.76-1-15.68-3.45-22.12-.37a2.8,2.8,0,0,0,0,5.11c5.16,2.49,12.13,2.64,17.76,3.7s10.73,2.78,16.2,3.84c2.92.56,5.11-2.75,4-5.31" transform="translate(-10.23 -19.86)"/><path class="cls-3" d="M222.8,183.72c-3.2-4.31-7.75-7.2-11.86-10.55-4.52-3.67-8.65-7.21-13.77-10-2.9-1.61-5.1,2.88-2.76,4.81,8.09,6.68,14.81,14.74,23.53,20.72a3.51,3.51,0,0,0,4.86-4.94" transform="translate(-10.23 -19.86)"/><path class="cls-3" d="M186.06,212.81c-1.09-4.47-3.71-8.11-6.28-11.87a154.26,154.26,0,0,0-9.8-13c-2.3-2.71-7.33-.11-5.56,3.3,2.13,4.13,4.75,8,7.2,11.92s4.8,8.84,8.13,12.31c2.16,2.24,7.23,1.12,6.31-2.68" transform="translate(-10.23 -19.86)"/><path class="cls-3" d="M129.16,197c-.73-2.43-4.67-2.26-5.44,0-1.53,4.6-1.79,9.68-2.49,14.47-.68,4.6-1.64,10,.57,14.32a3,3,0,0,0,5.53,0c2.21-4.31,1.49-10.13,2-14.89s1.19-9.37-.17-13.9" transform="translate(-10.23 -19.86)"/><path class="cls-3" d="M83.85,184l-.27,0c-1.81-.34-3.42,1.09-4.08,2.62a43.46,43.46,0,0,1-3.18,3.14c-1.67,1.7-3.11,3.7-4.64,5.54-3.1,3.76-6.42,7.37-7.34,12.29-.67,3.53,3.76,4.79,6.1,3.13,4.66-3.32,8-9.37,11.52-13.82,1.91-2.4,6.06-6.07,5.34-9.51A4.27,4.27,0,0,0,83.85,184" transform="translate(-10.23 -19.86)"/><path class="cls-3" d="M50.63,150c-4.93-.88-11.09,3.58-15.37,5.7a42.3,42.3,0,0,1-8.77,3.21c-3.1.76-5.62.81-7.82,3.28-1.23,1.4-.56,3.31.61,4.43,3.84,3.67,10.76.64,15-1.05,6-2.41,11.54-6.09,17.28-9a3.45,3.45,0,0,0-.9-6.53" transform="translate(-10.23 -19.86)"/><path class="cls-3" d="M56,110.09c-1.44-4.4-8.09-4.66-11.88-5.61s-7.32-1.73-11-2.71c-3.36-.9-7-2.06-10.53-1.74a3.33,3.33,0,0,0-2.16,5.32c4.19,4.75,11.56,6.1,17.5,7.4,5,1.1,10,2.58,15.22,2.29,2.5-.14,3.46-2.91,2.8-5" transform="translate(-10.23 -19.86)"/><path class="cls-3" d="M65.43,72.59c-2.25-2.46-4.5-4.92-6.9-7.25-3.57-3.48-7.83-7.73-12.9-8.61-3.84-.66-5.79,3.87-3.83,6.72,2.1,3.08,6.26,5,9.12,7.32,1.84,1.49,3.52,3.16,5.3,4.72a42.33,42.33,0,0,0,6.85,4.42,2.72,2.72,0,0,0,4.25-1.78c.56-2.2-.41-3.92-1.89-5.54" transform="translate(-10.23 -19.86)"/><path class="cls-3" d="M104,38.83c-1.56-4.1-2.66-11.3-7.34-13C93.29,24.64,89,28,90.91,31.6c1.83,3.45,3,7.32,4.46,10.91,1.93,4.62,3,10,5.74,14.16,1.16,1.79,3.55.9,4.39-.6,2.9-5.21.39-12.11-1.55-17.24" transform="translate(-10.23 -19.86)"/><path class="cls-3" d="M149.5,26.28c-1.26-.89-3.34-1.14-4.55,0-3.68,3.58-1.83,8.94-1.72,13.65.11,4.89-.91,11.83,1.35,16.27,1.22,2.38,4.11,2.16,5.35,0,2.57-4.56,2.46-11.13,2.6-16.25.13-4.48,1.17-10.69-3-13.67" transform="translate(-10.23 -19.86)"/><path class="cls-3" d="M230.61,79.41c-5.56.68-10.94,3-16.06,5.16-2.6,1.12-5.06,2.51-7.59,3.8-1.49.75-3.34,2.34-4.89,2.82-2.38.75-2.6,3.81-1.42,5.57a3.19,3.19,0,0,0,2.25,1.35c3.67.22,8.29-3.28,11.52-4.8,6.15-2.9,12.94-4.26,18.78-7.78,3.09-1.86.54-6.5-2.59-6.12" transform="translate(-10.23 -19.86)"/></svg>